<?xml version="1.0" encoding="utf-8"?>
<!-- Generator: Adobe Illustrator 16.0.0, SVG Export Plug-In . SVG Version: 6.00 Build 0)  -->
<!DOCTYPE svg PUBLIC "-//W3C//DTD SVG 1.1//EN" "http://www.w3.org/Graphics/SVG/1.1/DTD/svg11.dtd">
<svg version="1.1" id="Layer_1" xmlns="http://www.w3.org/2000/svg" xmlns:xlink="http://www.w3.org/1999/xlink" x="0px" y="0px"
	 width="18.182px" height="18.18px" viewBox="0 0 18.182 18.18" enable-background="new 0 0 18.182 18.18" xml:space="preserve">
<path fill="#818282" d="M9.09,0C4.07,0,0,4.07,0,9.09s4.07,9.09,9.09,9.09c5.021,0,9.092-4.07,9.092-9.09S14.111,0,9.09,0
	 M13.436,8.704L13.436,8.704c-0.427,0.427-1.12,0.427-1.547,0l-1.699-1.699v6.714c0,0.604-0.49,1.093-1.094,1.093
	c-0.604,0-1.095-0.489-1.095-1.093V7.003l-1.7,1.701c-0.428,0.427-1.119,0.427-1.547,0c-0.427-0.427-0.427-1.12,0-1.546L8.321,3.59
	c0.427-0.427,1.119-0.427,1.547,0l3.567,3.568C13.862,7.584,13.862,8.277,13.436,8.704"/>
</svg>
