<?xml version="1.0" encoding="utf-8"?>
<!-- Generator: Adobe Illustrator 16.0.0, SVG Export Plug-In . SVG Version: 6.00 Build 0)  -->
<!DOCTYPE svg PUBLIC "-//W3C//DTD SVG 1.1//EN" "http://www.w3.org/Graphics/SVG/1.1/DTD/svg11.dtd">
<svg version="1.1" id="Camada_1" xmlns="http://www.w3.org/2000/svg" xmlns:xlink="http://www.w3.org/1999/xlink" x="0px" y="0px"
	 width="18.106px" height="18.11px" viewBox="0 0 18.106 18.11" enable-background="new 0 0 18.106 18.11" xml:space="preserve">
<g id="XMLID_23_">
	<path id="XMLID_290_" fill-rule="evenodd" clip-rule="evenodd" d="M15.836,2.256h-0.01c0.001-1.253-1.004-2.26-2.261-2.256
		c-1.248,0.003-2.233,0.989-2.233,2.247c0,0.003,0.001,0.006,0.001,0.009H6.773C6.774,1.003,5.769-0.004,4.513,0
		C3.265,0.003,2.281,0.989,2.281,2.247c0,0.003,0.001,0.006,0.001,0.009H2.27C1.017,2.256,0,3.272,0,4.524v11.318
		c0,1.252,1.017,2.267,2.27,2.267h13.566c1.254,0,2.27-1.015,2.27-2.267V4.524C18.106,3.272,17.09,2.256,15.836,2.256 M5.683,3.386
		c0,0.622-0.505,1.127-1.127,1.127S3.429,4.008,3.429,3.386V2.294c0-0.623,0.505-1.127,1.127-1.127s1.127,0.504,1.127,1.127V3.386z
		 M12.454,3.386V2.294c0-0.623,0.504-1.127,1.126-1.127c0.624,0,1.126,0.504,1.126,1.127v1.092c0,0.622-0.502,1.127-1.126,1.127
		C12.958,4.513,12.454,4.008,12.454,3.386 M17.003,15.498H1.17V5.394h15.833V15.498z"/>
	<g id="XMLID_198_">
		<path id="XMLID_471_" d="M4.881,10.7v3.715c0.013,0.147,0.1,0.416,0.578,0.416h7.191c0,0,0.284-0.001,0.424-0.22l0,0V14.61
			c0.046-0.071,0.075-0.164,0.075-0.289V10.7H4.881z M13.182,8.156H9.41C9.543,8.07,9.745,7.99,9.929,7.916
			c0.433-0.174,0.921-0.367,1.082-0.77c0.08-0.208,0.062-0.439-0.053-0.69c-0.148-0.32-0.357-0.385-0.504-0.385
			c-0.487,0-1.005,0.813-1.401,1.622C8.658,6.884,8.14,6.071,7.653,6.071c-0.148,0-0.357,0.065-0.505,0.385
			c-0.116,0.251-0.133,0.483-0.051,0.69c0.158,0.402,0.647,0.596,1.079,0.77C8.363,7.99,8.563,8.07,8.695,8.156h-3.86
			c-0.146,0.017-0.35,0.098-0.35,0.425v1.195v0.083c0.008,0.121,0.068,0.336,0.396,0.336h8.268c0.454,0,0.474-0.388,0.474-0.388
			V8.581C13.622,8.195,13.293,8.157,13.182,8.156z M10.454,6.522c0.01,0,0.05,0.03,0.094,0.124c0.061,0.136,0.076,0.244,0.041,0.333
			c-0.087,0.22-0.479,0.377-0.827,0.516c-0.04,0.015-0.081,0.033-0.12,0.047C10.023,6.845,10.329,6.522,10.454,6.522z M8.344,7.496
			C7.998,7.357,7.604,7.2,7.517,6.979C7.482,6.89,7.496,6.782,7.559,6.646c0.045-0.093,0.082-0.124,0.094-0.124
			c0.123,0,0.432,0.323,0.812,1.021C8.427,7.528,8.385,7.511,8.344,7.496z M10.124,14.831H7.981V10.7h2.143V14.831z"/>
	</g>
</g>
</svg>
