<?xml version="1.0" encoding="utf-8"?>
<!-- Generator: Adobe Illustrator 16.0.0, SVG Export Plug-In . SVG Version: 6.00 Build 0)  -->
<!DOCTYPE svg PUBLIC "-//W3C//DTD SVG 1.1//EN" "http://www.w3.org/Graphics/SVG/1.1/DTD/svg11.dtd">
<svg version="1.1" id="Layer_1" xmlns="http://www.w3.org/2000/svg" xmlns:xlink="http://www.w3.org/1999/xlink" x="0px" y="0px"
	 width="18.106px" height="15.881px" viewBox="0 0 18.106 15.881" enable-background="new 0 0 18.106 15.881" xml:space="preserve">
<path fill="#818282" d="M15.863,5.658h-0.027l-1.437-3.543C13.88,0.836,12.638,0,11.259,0H6.797C5.402,0,4.15,0.854,3.642,2.153
	L2.27,5.658H2.243C1.004,5.658,0,6.662,0,7.901v2.304c0,1.239,1.004,2.243,2.243,2.243h0.02v1.17c0,1.25,1.013,2.263,2.263,2.263
	s2.264-1.013,2.264-2.263v-1.17h4.526v1.17c0,1.25,1.013,2.263,2.263,2.263s2.264-1.013,2.264-2.263v-1.17h0.02
	c1.239,0,2.243-1.004,2.243-2.243V7.901C18.106,6.662,17.102,5.658,15.863,5.658 M3.395,10.203c-0.625,0-1.132-0.507-1.132-1.132
	S2.77,7.939,3.395,7.939s1.131,0.507,1.131,1.132S4.02,10.203,3.395,10.203 M4.526,5.676l0.923-2.358
	C5.79,2.45,6.627,1.878,7.56,1.878h2.986c0.923,0,1.754,0.559,2.101,1.415l0.966,2.383H4.526z M14.711,10.203
	c-0.625,0-1.132-0.507-1.132-1.132s0.507-1.132,1.132-1.132s1.132,0.507,1.132,1.132S15.336,10.203,14.711,10.203"/>
</svg>
