<?xml version="1.0" encoding="utf-8"?>
<!-- Generator: Adobe Illustrator 19.0.0, SVG Export Plug-In . SVG Version: 6.00 Build 0)  -->
<svg version="1.1" id="Layer_1" xmlns="http://www.w3.org/2000/svg" xmlns:xlink="http://www.w3.org/1999/xlink" x="0px" y="0px"
	 viewBox="-297.9 390.4 13.5 13.5" style="enable-background:new -297.9 390.4 13.5 13.5;" xml:space="preserve">
<style type="text/css">
	.st0{fill:#00A1C1;}
</style>
<g>
	<path class="st0" d="M-285.3,393.8c0.6,1,0.9,2.2,0.9,3.4s-0.3,2.3-0.9,3.4c-0.6,1-1.4,1.8-2.5,2.5c-1,0.6-2.2,0.9-3.4,0.9
		c-1.2,0-2.3-0.3-3.4-0.9c-1-0.6-1.8-1.4-2.5-2.5c-0.6-1-0.9-2.2-0.9-3.4s0.3-2.3,0.9-3.4c0.6-1,1.4-1.8,2.5-2.5
		c1-0.6,2.2-0.9,3.4-0.9c1.2,0,2.3,0.3,3.4,0.9C-286.8,391.9-285.9,392.7-285.3,393.8z M-286.6,395.7c0-0.2-0.1-0.3-0.2-0.4
		l-0.8-0.8c-0.1-0.1-0.2-0.2-0.4-0.2c-0.2,0-0.3,0.1-0.4,0.2l-3.6,3.6l-2-2c-0.1-0.1-0.2-0.2-0.4-0.2c-0.2,0-0.3,0.1-0.4,0.2
		l-0.8,0.8c-0.1,0.1-0.2,0.2-0.2,0.4c0,0.2,0.1,0.3,0.2,0.4l3.2,3.2c0.1,0.1,0.2,0.2,0.4,0.2c0.2,0,0.3-0.1,0.4-0.2l4.8-4.8
		C-286.7,396-286.6,395.9-286.6,395.7z"/>
</g>
</svg>
