<?xml version="1.0" encoding="utf-8"?>
<!-- Generator: Adobe Illustrator 19.0.0, SVG Export Plug-In . SVG Version: 6.00 Build 0)  -->
<svg version="1.1" id="Layer_1" xmlns="http://www.w3.org/2000/svg" xmlns:xlink="http://www.w3.org/1999/xlink" x="0px" y="0px"
	 viewBox="-297.9 390.4 13.5 13.5" style="enable-background:new -297.9 390.4 13.5 13.5;" xml:space="preserve">
<style type="text/css">
	.st0{fill:#00A1C1;}
</style>
<g>
	<path class="st0" d="M-285.3,393.8c0.6,1,0.9,2.2,0.9,3.4c0,1.2-0.3,2.3-0.9,3.4c-0.6,1-1.4,1.8-2.5,2.5c-1,0.6-2.2,0.9-3.4,0.9
		c-1.2,0-2.3-0.3-3.4-0.9c-1-0.6-1.8-1.4-2.5-2.5c-0.6-1-0.9-2.2-0.9-3.4c0-1.2,0.3-2.3,0.9-3.4c0.6-1,1.4-1.8,2.5-2.5
		c1-0.6,2.2-0.9,3.4-0.9c1.2,0,2.3,0.3,3.4,0.9C-286.8,391.9-285.9,392.7-285.3,393.8z M-288.8,393c-0.7-0.4-1.5-0.6-2.4-0.6
		c-0.9,0-1.7,0.2-2.4,0.6c-0.7,0.4-1.3,1-1.7,1.7c-0.4,0.7-0.6,1.5-0.6,2.4s0.2,1.7,0.6,2.4c0.4,0.7,1,1.3,1.7,1.7
		c0.7,0.4,1.5,0.6,2.4,0.6c0.9,0,1.7-0.2,2.4-0.6c0.7-0.4,1.3-1,1.7-1.7c0.4-0.7,0.6-1.5,0.6-2.4s-0.2-1.7-0.6-2.4
		S-288,393.5-288.8,393z"/>
</g>
</svg>
