<?xml version="1.0" encoding="utf-8"?>
<!-- Generator: Adobe Illustrator 16.0.0, SVG Export Plug-In . SVG Version: 6.00 Build 0)  -->
<!DOCTYPE svg PUBLIC "-//W3C//DTD SVG 1.1//EN" "http://www.w3.org/Graphics/SVG/1.1/DTD/svg11.dtd">
<svg version="1.1" id="Layer_1" xmlns="http://www.w3.org/2000/svg" xmlns:xlink="http://www.w3.org/1999/xlink" x="0px" y="0px"
	 width="18.182px" height="18.18px" viewBox="0 0 18.182 18.18" enable-background="new 0 0 18.182 18.18" xml:space="preserve">
<g>
	<path fill="#676767" d="M9.091,0c-5.021,0-9.09,4.069-9.09,9.09c0,5.02,4.068,9.09,9.09,9.09c5.02,0,9.09-4.07,9.09-9.09
		C18.181,4.069,14.111,0,9.091,0 M9.128,15.879c-3.75,0-6.791-3.039-6.791-6.79c0-3.75,3.041-6.791,6.791-6.791
		c3.75,0,6.79,3.041,6.79,6.791C15.917,12.84,12.878,15.879,9.128,15.879"/>
	<path fill="#676767" d="M12.523,10.85l-2.271-2.274V4.594h-0.002c0.002-0.646-0.518-1.166-1.167-1.163
		C8.438,3.431,7.93,3.941,7.93,4.589v0.005v4.494c0,0.363,0.164,0.659,0.414,0.864l2.532,2.533c0.459,0.457,1.283,0.547,1.74,0.088
		C13.072,12.115,12.982,11.309,12.523,10.85C12.523,10.848,12.523,10.85,12.523,10.85"/>
</g>
</svg>
