<?xml version="1.0" encoding="utf-8"?>
<!-- Generator: Adobe Illustrator 19.0.0, SVG Export Plug-In . SVG Version: 6.00 Build 0)  -->
<svg version="1.1" id="Layer_1" xmlns="http://www.w3.org/2000/svg" xmlns:xlink="http://www.w3.org/1999/xlink" x="0px" y="0px"
	 viewBox="-298 392.2 14 11.8" style="enable-background:new -298 392.2 14 11.8;" xml:space="preserve">
<style type="text/css">
	.st0{fill:#00A1C1;}
</style>
<g id="XMLID_82_">
	<path id="XMLID_235_" class="st0" d="M-284.9,394.7c0.6,0.8,0.9,1.6,0.9,2.5s-0.3,1.7-0.9,2.5c-0.6,0.8-1.5,1.4-2.6,1.8
		c-1.1,0.4-2.3,0.7-3.5,0.7c-0.6,0-1.1,0-1.7-0.1c-0.9,0.9-2,1.5-3.4,1.8c-0.3,0.1-0.5,0.1-0.7,0.1c-0.1,0-0.1,0-0.2,0
		c-0.1,0-0.1-0.1-0.1-0.1c0-0.1,0-0.2,0.2-0.3c0,0,0.1-0.1,0.2-0.2c0.1-0.1,0.2-0.1,0.2-0.2c0,0,0.1-0.1,0.2-0.2
		c0.1-0.1,0.1-0.2,0.2-0.2c0-0.1,0.1-0.2,0.2-0.3c0.1-0.1,0.1-0.3,0.2-0.4c0-0.1,0.1-0.3,0.1-0.5c0-0.2,0.1-0.4,0.1-0.6
		c-0.8-0.5-1.4-1-1.8-1.7s-0.7-1.4-0.7-2.1c0-0.9,0.3-1.7,0.9-2.5c0.6-0.8,1.5-1.4,2.6-1.8c1.1-0.4,2.2-0.7,3.5-0.7
		c1.3,0,2.4,0.2,3.5,0.7C-286.4,393.3-285.5,393.9-284.9,394.7z M-293.3,397.9c0.2-0.2,0.3-0.4,0.3-0.7s-0.1-0.5-0.3-0.7
		c-0.2-0.2-0.4-0.3-0.7-0.3s-0.5,0.1-0.7,0.3s-0.3,0.4-0.3,0.7s0.1,0.5,0.3,0.7c0.2,0.2,0.4,0.3,0.7,0.3S-293.5,398.1-293.3,397.9z
		 M-290.2,397.9c0.2-0.2,0.3-0.4,0.3-0.7s-0.1-0.5-0.3-0.7c-0.2-0.2-0.4-0.3-0.7-0.3s-0.5,0.1-0.7,0.3s-0.3,0.4-0.3,0.7
		s0.1,0.5,0.3,0.7c0.2,0.2,0.4,0.3,0.7,0.3S-290.4,398.1-290.2,397.9z M-287.2,397.9c0.2-0.2,0.3-0.4,0.3-0.7s-0.1-0.5-0.3-0.7
		s-0.4-0.3-0.7-0.3c-0.3,0-0.5,0.1-0.7,0.3c-0.2,0.2-0.3,0.4-0.3,0.7s0.1,0.5,0.3,0.7c0.2,0.2,0.4,0.3,0.7,0.3
		C-287.7,398.2-287.4,398.1-287.2,397.9z"/>
</g>
</svg>
