<?xml version="1.0" encoding="utf-8"?>
<!-- Generator: Adobe Illustrator 19.0.0, SVG Export Plug-In . SVG Version: 6.00 Build 0)  -->
<svg version="1.1" id="Layer_1" xmlns="http://www.w3.org/2000/svg" xmlns:xlink="http://www.w3.org/1999/xlink" x="0px" y="0px"
	 viewBox="-297.9 390.2 17.2 13.8" style="enable-background:new -297.9 390.2 17.2 13.8;" xml:space="preserve">
<style type="text/css">
	.st0{fill:#00A1C1;}
</style>
<g id="XMLID_508_">
	<g>
		<path id="XMLID_33_" class="st0" d="M-289.3,392.6c-1.2,0-2.3,1-2.3,2.3c0,0.7,0.3,1.3,0.8,1.7c0,0,0,0,0,0c0.6,0.5,0.9,1.2,1,1.9
			h0.9c0.1-0.7,0.4-1.4,1-1.9c0,0,0,0,0,0c0.5-0.4,0.8-1.1,0.8-1.7C-287,393.6-288,392.6-289.3,392.6z"/>
		<path id="XMLID_30_" class="st0" d="M-281.7,390.2h-15.2c-0.6,0-1,0.5-1,1v9.8c0,0.6,0.5,1,1,1h2.4v1.9l2.5-1.9h10.3
			c0.6,0,1-0.5,1-1v-9.8C-280.7,390.6-281.1,390.2-281.7,390.2z M-287.3,397.2L-287.3,397.2c-0.5,0.4-0.8,1.1-0.7,1.7h0v0.4h0
			c0,0,0,0.1,0,0.1c0,0.7-0.9,1.2-1.3,1.2c-0.4,0-1.3-0.4-1.3-1.2c0,0,0-0.1,0-0.1h0V399c0.1-0.7-0.2-1.3-0.7-1.7h0
			c-0.7-0.6-1.1-1.4-1.1-2.4c0-1.7,1.4-3.1,3.1-3.1s3.1,1.4,3.1,3.1C-286.2,395.8-286.6,396.7-287.3,397.2z"/>
	</g>
</g>
</svg>
