<?xml version="1.0" encoding="utf-8"?>
<!-- Generator: Adobe Illustrator 16.0.0, SVG Export Plug-In . SVG Version: 6.00 Build 0)  -->
<!DOCTYPE svg PUBLIC "-//W3C//DTD SVG 1.1//EN" "http://www.w3.org/Graphics/SVG/1.1/DTD/svg11.dtd">
<svg version="1.1" id="Layer_1" xmlns="http://www.w3.org/2000/svg" xmlns:xlink="http://www.w3.org/1999/xlink" x="0px" y="0px"
	 width="611.997px" height="515.832px" viewBox="-1.499 149.3 611.997 515.832"
	 enable-background="new -1.499 149.3 611.997 515.832" xml:space="preserve">
<g id="XMLID_82_">
	<path id="XMLID_235_" fill="#00A1C1" d="M571.156,258.589c26.229,34.971,39.342,69.943,39.342,109.285
		c0,39.344-13.113,74.316-39.342,109.287s-65.572,61.199-113.658,78.686c-48.086,17.484-100.541,30.6-153,30.6
		c-26.229,0-48.086,0-74.314-4.371c-39.343,39.342-87.429,65.57-148.629,78.684c-13.113,4.373-21.857,4.373-30.601,4.373
		c-4.371,0-4.371,0-8.743,0s-4.372-4.373-4.372-4.373c0-4.371,0-8.742,8.744-13.113c0,0,4.371-4.371,8.743-8.742
		c4.371-4.373,8.743-4.373,8.743-8.744c0,0,4.372-4.371,8.743-8.744c4.372-4.371,4.372-8.742,8.744-8.742
		c0-4.373,4.371-8.744,8.743-13.113c4.371-4.373,4.371-13.115,8.743-17.486c0-4.371,4.372-13.113,4.372-21.857
		c0-8.742,4.371-17.484,4.371-26.229c-34.971-21.857-61.199-43.715-78.685-74.314c-17.485-30.602-30.601-61.199-30.601-91.801
		c0-39.342,13.113-74.314,39.342-109.285c26.229-34.971,65.572-61.201,113.658-78.686c48.086-17.486,96.172-30.602,153-30.602
		c56.829,0,104.915,8.744,153,30.602C505.584,197.388,544.928,223.616,571.156,258.589z M203.957,398.474
		c8.743-8.742,13.113-17.484,13.113-30.6s-4.372-21.857-13.113-30.602c-8.744-8.742-17.485-13.113-30.601-13.113
		s-21.857,4.371-30.601,13.113c-8.744,8.742-13.114,17.486-13.114,30.602s4.372,21.857,13.114,30.6
		c8.743,8.744,17.485,13.113,30.601,13.113S195.212,407.218,203.957,398.474z M339.469,398.474
		c8.744-8.742,13.115-17.484,13.115-30.6s-4.373-21.857-13.115-30.602c-8.742-8.742-17.484-13.113-30.6-13.113
		c-13.116,0-21.858,4.371-30.601,13.113s-13.113,17.486-13.113,30.602s4.371,21.857,13.113,30.6
		c8.743,8.744,17.485,13.113,30.601,13.113C321.984,411.587,330.727,407.218,339.469,398.474z M470.611,398.474
		c8.744-8.742,13.115-17.484,13.115-30.6s-4.373-21.857-13.115-30.602c-8.74-8.742-17.484-13.113-30.6-13.113
		c-13.113,0-21.857,4.371-30.6,13.113c-8.744,8.744-13.115,17.486-13.115,30.602s4.373,21.857,13.115,30.6
		c8.742,8.744,17.484,13.113,30.6,13.113C448.756,411.589,461.871,407.218,470.611,398.474z"/>
</g>
</svg>
