<?xml version="1.0" encoding="utf-8"?>
<!-- Generator: Adobe Illustrator 16.0.0, SVG Export Plug-In . SVG Version: 6.00 Build 0)  -->
<!DOCTYPE svg PUBLIC "-//W3C//DTD SVG 1.1//EN" "http://www.w3.org/Graphics/SVG/1.1/DTD/svg11.dtd">
<svg version="1.1" id="Layer_1" xmlns="http://www.w3.org/2000/svg" xmlns:xlink="http://www.w3.org/1999/xlink" x="0px" y="0px"
	 width="18.11px" height="18.122px" viewBox="0 0 18.11 18.122" enable-background="new 0 0 18.11 18.122" xml:space="preserve">
<path fill="#818282" d="M7.145,12.534c0.087,0.137,0.188,0.269,0.307,0.389c0.449,0.449,1.041,0.665,1.63,0.654
	c0.588,0.011,1.18-0.205,1.629-0.654c0.12-0.12,0.22-0.252,0.307-0.389l4.183-4.182c0.877-0.877,0.877-2.298,0-3.175
	s-2.3-0.877-3.177,0l-0.736,0.738V2.246C11.286,1.005,10.279,0,9.04,0C7.8,0,6.795,1.005,6.795,2.246v3.587L6.124,5.162
	c-0.877-0.876-2.298-0.876-3.175,0c-0.877,0.877-0.877,2.299,0,3.176L7.145,12.534z M15.815,11.318h-1.987l-2.522,2.488
	c-0.603,0.554-1.401,0.901-2.285,0.901c-0.879,0-1.673-0.343-2.274-0.892l-0.008,0.008l-0.082-0.082
	c-0.02-0.02-0.039-0.039-0.059-0.059l-2.364-2.364H2.295C1.027,11.318,0,12.345,0,13.613v2.215c0,1.267,1.027,2.294,2.295,2.294
	h13.521c1.268,0,2.295-1.027,2.295-2.294v-2.215C18.11,12.345,17.083,11.318,15.815,11.318 M15.848,16.975
	c-0.625,0-1.132-0.507-1.132-1.132s0.507-1.131,1.132-1.131s1.131,0.506,1.131,1.131S16.473,16.975,15.848,16.975"/>
</svg>
