<?xml version="1.0" encoding="utf-8"?>
<!-- Generator: Adobe Illustrator 19.0.0, SVG Export Plug-In . SVG Version: 6.00 Build 0)  -->
<svg version="1.1" id="Layer_1" xmlns="http://www.w3.org/2000/svg" xmlns:xlink="http://www.w3.org/1999/xlink" x="0px" y="0px"
	 viewBox="-297.9 390.4 11.6 13.5" style="enable-background:new -297.9 390.4 11.6 13.5;" xml:space="preserve">
<style type="text/css">
	.st0{fill:#00A1C1;}
</style>
<g>
	<path class="st0" d="M-286.8,393.3c0.1,0.1,0.3,0.3,0.4,0.6s0.2,0.5,0.2,0.7v8.7c0,0.2-0.1,0.4-0.2,0.5s-0.3,0.2-0.5,0.2h-10.1
		c-0.2,0-0.4-0.1-0.5-0.2s-0.2-0.3-0.2-0.5v-12.1c0-0.2,0.1-0.4,0.2-0.5s0.3-0.2,0.5-0.2h6.8c0.2,0,0.4,0.1,0.7,0.2s0.4,0.2,0.6,0.4
		L-286.8,393.3z M-287.3,403v-7.7h-3.1c-0.2,0-0.4-0.1-0.5-0.2c-0.1-0.1-0.2-0.3-0.2-0.5v-3.1h-5.8V403H-287.3z M-293.5,397.7
		c-0.3,0.3-0.6,0.4-1,0.4s-0.7-0.1-1-0.4c-0.3-0.3-0.4-0.6-0.4-1s0.1-0.7,0.4-1c0.3-0.3,0.6-0.4,1-0.4s0.7,0.1,1,0.4
		c0.3,0.3,0.4,0.6,0.4,1S-293.2,397.4-293.5,397.7z M-288.2,399.6v2.4h-7.7v-1.4l1.4-1.4l1,1l2.9-2.9L-288.2,399.6z M-290.2,391.4
		v2.8h2.8c-0.1-0.1-0.1-0.2-0.2-0.3l-2.4-2.4C-289.9,391.5-290,391.5-290.2,391.4z"/>
</g>
</svg>
