<?xml version="1.0" encoding="utf-8"?>
<!-- Generator: Adobe Illustrator 16.0.0, SVG Export Plug-In . SVG Version: 6.00 Build 0)  -->
<!DOCTYPE svg PUBLIC "-//W3C//DTD SVG 1.1//EN" "http://www.w3.org/Graphics/SVG/1.1/DTD/svg11.dtd">
<svg version="1.1" id="Layer_1" xmlns="http://www.w3.org/2000/svg" xmlns:xlink="http://www.w3.org/1999/xlink" x="0px" y="0px"
	 width="18.145px" height="18.145px" viewBox="0 0 18.145 18.145" enable-background="new 0 0 18.145 18.145" xml:space="preserve">
<path fill="#818282" d="M15.881,11.335c1.249,0,2.264-1.013,2.264-2.263s-1.015-2.263-2.264-2.263h-0.424
	c-0.08-0.224-0.169-0.44-0.271-0.651l0.301-0.3c0.884-0.884,0.884-2.317,0-3.2c-0.885-0.885-2.317-0.885-3.201,0L11.994,2.95
	c-0.214-0.103-0.434-0.196-0.659-0.277V2.264C11.335,1.014,10.322,0,9.072,0S6.809,1.014,6.809,2.264v0.374
	c-0.236,0.08-0.468,0.175-0.69,0.279l-0.262-0.26c-0.883-0.885-2.315-0.885-3.199,0c-0.885,0.883-0.885,2.316,0,3.2l0.233,0.234
	C2.777,6.325,2.676,6.563,2.589,6.809H2.263C1.013,6.809,0,7.822,0,9.072s1.014,2.263,2.264,2.263H2.57
	c0.088,0.252,0.188,0.497,0.305,0.734l-0.217,0.217c-0.885,0.884-0.885,2.317,0,3.201c0.884,0.884,2.316,0.884,3.199,0l0.227-0.225
	c0.234,0.112,0.477,0.213,0.727,0.298v0.32c0,1.25,1.014,2.264,2.264,2.264s2.263-1.014,2.263-2.264v-0.355
	c0.238-0.086,0.471-0.185,0.695-0.294l0.256,0.256c0.884,0.884,2.316,0.884,3.201,0c0.884-0.884,0.884-2.317,0-3.201l-0.283-0.283
	c0.103-0.217,0.193-0.438,0.272-0.668H15.881z M9.072,11.385c-1.276,0-2.312-1.035-2.312-2.312S7.795,6.76,9.072,6.76
	c1.276,0,2.312,1.035,2.312,2.312S10.349,11.385,9.072,11.385z"/>
</svg>
