<?xml version="1.0" encoding="utf-8"?>
<!-- Generator: Adobe Illustrator 16.0.0, SVG Export Plug-In . SVG Version: 6.00 Build 0)  -->
<!DOCTYPE svg PUBLIC "-//W3C//DTD SVG 1.1//EN" "http://www.w3.org/Graphics/SVG/1.1/DTD/svg11.dtd">
<svg version="1.1" id="Layer_1" xmlns="http://www.w3.org/2000/svg" xmlns:xlink="http://www.w3.org/1999/xlink" x="0px" y="0px"
	 width="18.144px" height="18.144px" viewBox="0 0 18.144 18.144" enable-background="new 0 0 18.144 18.144" xml:space="preserve">
<path fill-rule="evenodd" clip-rule="evenodd" fill="#818282" d="M15.881,11.335c1.249,0,2.263-1.013,2.263-2.263
	s-1.014-2.263-2.263-2.263h-0.424c-0.08-0.223-0.169-0.44-0.271-0.651l0.301-0.3c0.884-0.884,0.884-2.317,0-3.2
	c-0.885-0.885-2.317-0.885-3.201,0L11.994,2.95c-0.214-0.103-0.434-0.196-0.659-0.277V2.264C11.335,1.014,10.322,0,9.072,0
	S6.809,1.014,6.809,2.264v0.374c-0.236,0.081-0.467,0.175-0.69,0.28l-0.262-0.26c-0.883-0.885-2.315-0.885-3.199,0
	c-0.885,0.883-0.885,2.316,0,3.2l0.233,0.235c-0.114,0.232-0.215,0.47-0.302,0.716H2.263C1.013,6.809,0,7.822,0,9.072
	s1.013,2.263,2.263,2.263h0.307c0.088,0.252,0.189,0.497,0.305,0.734l-0.217,0.217c-0.885,0.884-0.885,2.317,0,3.201
	c0.884,0.884,2.316,0.884,3.199,0l0.227-0.225c0.234,0.113,0.476,0.213,0.726,0.298v0.321c0,1.25,1.014,2.263,2.264,2.263
	s2.263-1.013,2.263-2.263v-0.356c0.238-0.086,0.47-0.184,0.695-0.294l0.256,0.256c0.884,0.884,2.316,0.884,3.201,0
	c0.884-0.884,0.884-2.317,0-3.201l-0.283-0.283c0.102-0.217,0.193-0.439,0.272-0.668H15.881z M9.022,11.411
	c-1.276,0-2.312-1.035-2.312-2.312c0-1.277,1.035-2.312,2.312-2.312c1.277,0,2.313,1.035,2.313,2.312
	C11.335,10.376,10.3,11.411,9.022,11.411"/>
</svg>
