<?xml version="1.0" encoding="utf-8"?>
<!-- Generator: Adobe Illustrator 16.0.0, SVG Export Plug-In . SVG Version: 6.00 Build 0)  -->
<!DOCTYPE svg PUBLIC "-//W3C//DTD SVG 1.1//EN" "http://www.w3.org/Graphics/SVG/1.1/DTD/svg11.dtd">
<svg version="1.1" id="Layer_1" xmlns="http://www.w3.org/2000/svg" xmlns:xlink="http://www.w3.org/1999/xlink" x="0px" y="0px"
	 width="18.106px" height="15.773px" viewBox="0 0 18.106 15.773" enable-background="new 0 0 18.106 15.773" xml:space="preserve">
<path fill="#818282" d="M15.884,2.256H9.068C9.068,1.01,8.058,0,6.813,0H2.337C1.092,0,0.082,1.01,0.082,2.256H0v11.296
	c0,1.227,0.994,2.222,2.222,2.222h13.662c1.227,0,2.222-0.995,2.222-2.222V4.478C18.106,3.25,17.111,2.256,15.884,2.256
	 M3.419,13.59c-0.639,0-1.156-0.518-1.156-1.156s0.517-1.156,1.156-1.156s1.156,0.518,1.156,1.156S4.058,13.59,3.419,13.59
	 M3.419,10.194c-0.639,0-1.156-0.517-1.156-1.155S2.78,7.883,3.419,7.883S4.575,8.4,4.575,9.039S4.058,10.194,3.419,10.194
	 M3.419,6.801c-0.639,0-1.156-0.519-1.156-1.156c0-0.639,0.517-1.156,1.156-1.156s1.156,0.518,1.156,1.156
	C4.575,6.282,4.058,6.801,3.419,6.801 M14.711,13.541h-7.96c-0.625,0-1.132-0.507-1.132-1.132s0.507-1.132,1.132-1.132h7.96
	c0.625,0,1.132,0.507,1.132,1.132S15.336,13.541,14.711,13.541 M14.711,10.146h-7.96c-0.625,0-1.132-0.507-1.132-1.132
	s0.507-1.132,1.132-1.132h7.96c0.625,0,1.132,0.507,1.132,1.132S15.336,10.146,14.711,10.146 M14.711,6.751h-7.96
	c-0.625,0-1.132-0.506-1.132-1.131s0.507-1.132,1.132-1.132h7.96c0.625,0,1.132,0.507,1.132,1.132S15.336,6.751,14.711,6.751"/>
</svg>
