<?xml version="1.0" encoding="utf-8"?>
<!-- Generator: Adobe Illustrator 19.0.0, SVG Export Plug-In . SVG Version: 6.00 Build 0)  -->
<svg version="1.1" id="Layer_1" xmlns="http://www.w3.org/2000/svg" xmlns:xlink="http://www.w3.org/1999/xlink" x="0px" y="0px"
	 viewBox="-297.9 390.3 15.7 13.7" style="enable-background:new -297.9 390.3 15.7 13.7;" xml:space="preserve">
<style type="text/css">
	.st0{fill:#00A1C1;}
</style>
<g>
	<path id="XMLID_2980_" class="st0" d="M-296,400.1c-1.1,0-1.9,0.9-1.9,1.9s0.9,1.9,1.9,1.9c1.1,0,1.9-0.9,1.9-1.9
		S-294.9,400.1-296,400.1z M-296,402.7c-0.4,0-0.6-0.3-0.6-0.6c0-0.4,0.3-0.6,0.6-0.6c0.4,0,0.6,0.3,0.6,0.6
		C-295.3,402.4-295.6,402.7-296,402.7z"/>
	<path id="XMLID_2979_" class="st0" d="M-282.2,402c0,0.3-0.2,0.5-0.5,0.5h-9.5c-0.3,0-0.5-0.2-0.5-0.5l0,0c0-0.3,0.2-0.5,0.5-0.5
		h9.5C-282.4,401.5-282.2,401.7-282.2,402L-282.2,402z"/>
	<path id="XMLID_2975_" class="st0" d="M-296,395.2c-1.1,0-1.9,0.9-1.9,1.9c0,1.1,0.9,1.9,1.9,1.9c1.1,0,1.9-0.9,1.9-1.9
		C-294,396-294.9,395.2-296,395.2z M-296,397.8c-0.4,0-0.6-0.3-0.6-0.6c0-0.4,0.3-0.6,0.6-0.6c0.4,0,0.6,0.3,0.6,0.6
		C-295.3,397.5-295.6,397.8-296,397.8z"/>
	<path id="XMLID_2974_" class="st0" d="M-282.2,397.1c0,0.3-0.2,0.5-0.5,0.5h-9.5c-0.3,0-0.5-0.2-0.5-0.5l0,0c0-0.3,0.2-0.5,0.5-0.5
		h9.5C-282.4,396.6-282.2,396.9-282.2,397.1L-282.2,397.1z"/>
	<path id="XMLID_2970_" class="st0" d="M-296,390.3c-1.1,0-1.9,0.9-1.9,1.9c0,1.1,0.9,1.9,1.9,1.9c1.1,0,1.9-0.9,1.9-1.9
		C-294,391.1-294.9,390.3-296,390.3z M-296,392.8c-0.4,0-0.6-0.3-0.6-0.6c0-0.4,0.3-0.6,0.6-0.6c0.4,0,0.6,0.3,0.6,0.6
		C-295.3,392.6-295.6,392.8-296,392.8z"/>
	<path id="XMLID_2969_" class="st0" d="M-282.2,392.2c0,0.3-0.2,0.5-0.5,0.5h-9.5c-0.3,0-0.5-0.2-0.5-0.5l0,0c0-0.3,0.2-0.5,0.5-0.5
		h9.5C-282.4,391.7-282.2,391.9-282.2,392.2L-282.2,392.2z"/>
</g>
</svg>
