<?xml version="1.0" encoding="utf-8"?>
<!-- Generator: Adobe Illustrator 19.0.0, SVG Export Plug-In . SVG Version: 6.00 Build 0)  -->
<svg version="1.1" id="Layer_1" xmlns="http://www.w3.org/2000/svg" xmlns:xlink="http://www.w3.org/1999/xlink" x="0px" y="0px"
	 viewBox="-297.9 390.3 17.4 13.6" style="enable-background:new -297.9 390.3 17.4 13.6;" xml:space="preserve">
<style type="text/css">
	.st0{fill:#00A1C1;}
</style>
<g id="XMLID_30_">
	<path id="XMLID_31_" class="st0" d="M-295.4,390.6v1.9c0,0.1,0,0.2-0.1,0.2c-0.1,0.1-0.1,0.1-0.2,0.1h-1.9c-0.1,0-0.2,0-0.2-0.1
		c-0.1-0.1-0.1-0.1-0.1-0.2v-1.9c0-0.1,0-0.2,0.1-0.2s0.1-0.1,0.2-0.1h1.9c0.1,0,0.2,0,0.2,0.1
		C-295.5,390.5-295.4,390.5-295.4,390.6z M-295.4,394.3v1.9c0,0.1,0,0.2-0.1,0.2c-0.1,0.1-0.1,0.1-0.2,0.1h-1.9
		c-0.1,0-0.2,0-0.2-0.1c-0.1-0.1-0.1-0.1-0.1-0.2v-1.9c0-0.1,0-0.2,0.1-0.2c0.1-0.1,0.1-0.1,0.2-0.1h1.9c0.1,0,0.2,0,0.2,0.1
		C-295.5,394.2-295.4,394.3-295.4,394.3z M-295.4,398.1v1.9c0,0.1,0,0.2-0.1,0.2c-0.1,0.1-0.1,0.1-0.2,0.1h-1.9
		c-0.1,0-0.2,0-0.2-0.1s-0.1-0.1-0.1-0.2v-1.9c0-0.1,0-0.2,0.1-0.2c0.1-0.1,0.1-0.1,0.2-0.1h1.9c0.1,0,0.2,0,0.2,0.1
		C-295.5,397.9-295.4,398-295.4,398.1z M-295.4,401.8v1.9c0,0.1,0,0.2-0.1,0.2c-0.1,0.1-0.1,0.1-0.2,0.1h-1.9c-0.1,0-0.2,0-0.2-0.1
		c-0.1-0.1-0.1-0.1-0.1-0.2v-1.9c0-0.1,0-0.2,0.1-0.2s0.1-0.1,0.2-0.1h1.9c0.1,0,0.2,0,0.2,0.1
		C-295.5,401.6-295.4,401.7-295.4,401.8z M-280.5,390.6v1.9c0,0.1,0,0.2-0.1,0.2c-0.1,0.1-0.1,0.1-0.2,0.1h-13c-0.1,0-0.2,0-0.2-0.1
		c-0.1-0.1-0.1-0.1-0.1-0.2v-1.9c0-0.1,0-0.2,0.1-0.2c0.1-0.1,0.1-0.1,0.2-0.1h13c0.1,0,0.2,0,0.2,0.1S-280.5,390.5-280.5,390.6z
		 M-280.5,394.3v1.9c0,0.1,0,0.2-0.1,0.2c-0.1,0.1-0.1,0.1-0.2,0.1h-13c-0.1,0-0.2,0-0.2-0.1c-0.1-0.1-0.1-0.1-0.1-0.2v-1.9
		c0-0.1,0-0.2,0.1-0.2c0.1-0.1,0.1-0.1,0.2-0.1h13c0.1,0,0.2,0,0.2,0.1C-280.6,394.2-280.5,394.3-280.5,394.3z M-280.5,398.1v1.9
		c0,0.1,0,0.2-0.1,0.2s-0.1,0.1-0.2,0.1h-13c-0.1,0-0.2,0-0.2-0.1c-0.1-0.1-0.1-0.1-0.1-0.2v-1.9c0-0.1,0-0.2,0.1-0.2
		c0.1-0.1,0.1-0.1,0.2-0.1h13c0.1,0,0.2,0,0.2,0.1C-280.6,397.9-280.5,398-280.5,398.1z M-280.5,401.8v1.9c0,0.1,0,0.2-0.1,0.2
		c-0.1,0.1-0.1,0.1-0.2,0.1h-13c-0.1,0-0.2,0-0.2-0.1c-0.1-0.1-0.1-0.1-0.1-0.2v-1.9c0-0.1,0-0.2,0.1-0.2c0.1-0.1,0.1-0.1,0.2-0.1
		h13c0.1,0,0.2,0,0.2,0.1S-280.5,401.7-280.5,401.8z"/>
</g>
</svg>
