<?xml version="1.0" encoding="utf-8"?>
<!-- Generator: Adobe Illustrator 16.0.0, SVG Export Plug-In . SVG Version: 6.00 Build 0)  -->
<!DOCTYPE svg PUBLIC "-//W3C//DTD SVG 1.1//EN" "http://www.w3.org/Graphics/SVG/1.1/DTD/svg11.dtd">
<svg version="1.1" id="Camada_1" xmlns="http://www.w3.org/2000/svg" xmlns:xlink="http://www.w3.org/1999/xlink" x="0px" y="0px"
	 width="18.115px" height="18.115px" viewBox="0 0 18.115 18.115" enable-background="new 0 0 18.115 18.115" xml:space="preserve">
<g id="XMLID_63_">
	<path id="XMLID_11_" stroke="#000000" stroke-miterlimit="10" d="M10.895,17.615H1.846c-0.743,0-1.346-0.603-1.346-1.345V1.846
		C0.5,1.103,1.104,0.5,1.846,0.5h9.049c0.743,0,1.346,0.603,1.346,1.346v2.59c0,0.188-0.153,0.342-0.342,0.342
		c-0.19,0-0.343-0.153-0.343-0.342v-2.59c0-0.366-0.295-0.661-0.661-0.661H1.846c-0.364,0-0.661,0.295-0.661,0.661V16.27
		c0,0.364,0.297,0.661,0.661,0.661h9.049c0.366,0,0.661-0.297,0.661-0.661v-2.796c0-0.189,0.153-0.343,0.343-0.343
		c0.188,0,0.342,0.154,0.342,0.343v2.796C12.241,17.012,11.638,17.615,10.895,17.615z"/>
	<g id="XMLID_12_">
		<path id="XMLID_18_" stroke="#000000" stroke-miterlimit="10" d="M5.326,9.058c0-0.19,0.154-0.343,0.343-0.343h10.953
			c0.19,0,0.343,0.153,0.343,0.343c0,0.188-0.153,0.342-0.343,0.342H5.669C5.48,9.4,5.326,9.247,5.326,9.058z"/>
		<g id="XMLID_14_">
			<path id="XMLID_17_" stroke="#000000" stroke-miterlimit="10" d="M17.032,9.285L14.15,6.404c-0.133-0.133-0.133-0.349,0-0.484
				c0.134-0.133,0.352-0.133,0.484,0l2.88,2.881c0.134,0.134,0.134,0.351,0,0.484c-0.066,0.067-0.155,0.1-0.242,0.1
				S17.098,9.352,17.032,9.285z"/>
			<path id="XMLID_15_" stroke="#000000" stroke-miterlimit="10" d="M14.15,12.195c-0.133-0.133-0.133-0.351,0-0.484l2.881-2.881
				c0.133-0.133,0.35-0.133,0.483,0c0.134,0.135,0.134,0.351,0,0.484l-2.88,2.881c-0.067,0.066-0.154,0.1-0.241,0.1
				C14.305,12.295,14.218,12.261,14.15,12.195z"/>
		</g>
	</g>
</g>
</svg>
