<?xml version="1.0" encoding="utf-8"?>
<!-- Generator: Adobe Illustrator 16.0.0, SVG Export Plug-In . SVG Version: 6.00 Build 0)  -->
<!DOCTYPE svg PUBLIC "-//W3C//DTD SVG 1.1//EN" "http://www.w3.org/Graphics/SVG/1.1/DTD/svg11.dtd">
<svg version="1.1" id="Layer_1" xmlns="http://www.w3.org/2000/svg" xmlns:xlink="http://www.w3.org/1999/xlink" x="0px" y="0px"
	 width="14.061px" height="14.059px" viewBox="0 0 14.061 14.059" enable-background="new 0 0 14.061 14.059" xml:space="preserve">
<g>
	<path fill-rule="evenodd" clip-rule="evenodd" fill="#00A2C2" d="M3.373,13.335c-0.169-0.036-0.314-0.077-0.454-0.148
		c-0.475-0.195-0.829-0.489-0.874-1.039c-0.033-0.395,0.113-0.735,0.369-1.022c0.467-0.526,1.074-0.742,1.762-0.757
		c0.193-0.004,0.388,0.029,0.574,0.087c0.074,0.022,0.105,0.004,0.1-0.076c-0.003-0.045-0.001-0.092-0.001-0.137
		c0-2.743,0.001-5.485-0.003-8.228c0-0.13,0.028-0.177,0.168-0.2c1.6-0.255,3.197-0.521,4.796-0.783
		c0.687-0.112,1.372-0.222,2.059-0.335c0.11-0.019,0.16-0.013,0.159,0.127c-0.004,3.167-0.002,6.334-0.003,9.501
		c-0.001,0.773-0.442,1.386-1.194,1.663c-0.429,0.158-0.868,0.234-1.323,0.146c-0.485-0.094-0.901-0.306-1.142-0.764
		c-0.223-0.429-0.152-0.852,0.102-1.234c0.414-0.626,1.035-0.899,1.764-0.958c0.242-0.019,0.482-0.003,0.711,0.073
		c0.127,0.041,0.145,0.002,0.145-0.113c-0.004-1.135-0.003-2.271-0.003-3.407c0-0.722-0.002-1.443,0.003-2.164
		c0-0.118-0.018-0.157-0.15-0.131c-1.104,0.21-2.209,0.414-3.314,0.617c-0.547,0.101-1.096,0.2-1.645,0.292
		C5.852,4.365,5.813,4.408,5.813,4.539c-0.004,2.322-0.02,4.645-0.02,6.969c0.001,0.723-0.363,1.192-0.957,1.535
		c-0.275,0.158-0.576,0.232-0.879,0.292C3.74,13.365,3.567,13.359,3.373,13.335z"/>
	
		<ellipse transform="matrix(0.979 -0.2039 0.2039 0.979 -2.3397 1.0463)" fill-rule="evenodd" clip-rule="evenodd" fill="#00A2C2" cx="3.907" cy="11.877" rx="1.889" ry="1.474"/>
</g>
</svg>
