<?xml version="1.0" encoding="utf-8"?>
<!-- Generator: Adobe Illustrator 16.0.0, SVG Export Plug-In . SVG Version: 6.00 Build 0)  -->
<!DOCTYPE svg PUBLIC "-//W3C//DTD SVG 1.1//EN" "http://www.w3.org/Graphics/SVG/1.1/DTD/svg11.dtd">
<svg version="1.1" id="Layer_1" xmlns="http://www.w3.org/2000/svg" xmlns:xlink="http://www.w3.org/1999/xlink" x="0px" y="0px"
	 width="18.181px" height="18.18px" viewBox="0 0 18.181 18.18" enable-background="new 0 0 18.181 18.18" xml:space="preserve">
<path fill="#818282" d="M15.842,0H2.34C1.048,0,0,1.047,0,2.339v13.502c0,1.292,1.048,2.339,2.34,2.339h13.502
	c1.292,0,2.339-1.047,2.339-2.339V2.339C18.181,1.047,17.134,0,15.842,0 M13.707,14.336c-0.004,0.001-0.007,0.003-0.01,0.005
	c-0.479,0.263-0.968,0.418-1.512,0.418c-0.757,0-1.44-0.312-2.131-0.566c-0.496-0.18-0.977-0.402-1.424-0.681
	c-1.383-0.862-3.049-2.543-3.903-3.938C4.45,9.123,4.231,8.638,4.053,8.138C3.801,7.44,3.491,6.751,3.491,5.988
	c0-0.549,0.154-1.042,0.414-1.526c0.041-0.074,0.086-0.153,0.132-0.231l0.014,0.008c0.268-0.457,0.755-0.761,1.326-0.762
	C5.989,3.475,6.511,3.826,6.77,4.338c0.168,0.309,0.335,0.619,0.511,0.92c0.131,0.213,0.375,0.476,0.375,0.73
	c0,0.501-1.472,1.231-1.472,1.674c0,0.221,0.203,0.509,0.316,0.706c0.821,1.493,1.847,2.527,3.326,3.356
	c0.195,0.114,0.48,0.32,0.699,0.32c0.439,0,1.163-1.486,1.66-1.486c0.251,0,0.512,0.247,0.723,0.378
	c0.334,0.198,0.678,0.387,1.021,0.578l-0.002,0.003c0.458,0.277,0.764,0.778,0.761,1.359C14.688,13.548,14.284,14.107,13.707,14.336
	"/>
</svg>
