<?xml version="1.0" encoding="utf-8"?>
<!-- Generator: Adobe Illustrator 16.0.0, SVG Export Plug-In . SVG Version: 6.00 Build 0)  -->
<!DOCTYPE svg PUBLIC "-//W3C//DTD SVG 1.1//EN" "http://www.w3.org/Graphics/SVG/1.1/DTD/svg11.dtd">
<svg version="1.1" id="Layer_1" xmlns="http://www.w3.org/2000/svg" xmlns:xlink="http://www.w3.org/1999/xlink" x="0px" y="0px"
	 width="18.18px" height="18.18px" viewBox="0 0 18.18 18.18" enable-background="new 0 0 18.18 18.18" xml:space="preserve">
<path fill="#818282" d="M9.089,0C4.069,0,0,4.07,0,9.09c0,5.021,4.069,9.09,9.089,9.09c5.021,0,9.091-4.068,9.091-9.09
	C18.18,4.07,14.11,0,9.089,0 M9.191,15.292c-0.623,0-1.128-0.504-1.128-1.127s0.505-1.127,1.128-1.127
	c0.622,0,1.127,0.504,1.127,1.127S9.813,15.292,9.191,15.292 M10.212,9.472v1.41c0,0.594-0.481,1.073-1.074,1.073
	c-0.593,0-1.074-0.479-1.074-1.073V8.484c0-0.576,0.456-1.038,1.025-1.065v-0.01C9.098,7.41,9.105,7.412,9.113,7.414
	c0.009,0,0.016-0.005,0.025-0.005c0.009,0,0.016,0.005,0.025,0.005c0.567-0.015,1.024-0.567,1.024-1.137
	c0-0.578-0.469-1.047-1.047-1.047c-0.385,0-0.721,0.208-0.903,0.517C8.048,6.068,7.724,6.28,7.352,6.28
	c-0.115,0-0.237-0.001-0.36-0.001C6.25,6.277,5.756,5.501,6.073,4.83c0.629-1.331,2.098-2.187,3.723-1.882
	c1.289,0.242,2.358,1.261,2.646,2.541C12.853,7.312,11.786,8.944,10.212,9.472"/>
</svg>
