<?xml version="1.0" encoding="utf-8"?>
<!-- Generator: Adobe Illustrator 19.0.0, SVG Export Plug-In . SVG Version: 6.00 Build 0)  -->
<svg version="1.1" id="Layer_1" xmlns="http://www.w3.org/2000/svg" xmlns:xlink="http://www.w3.org/1999/xlink" x="0px" y="0px"
	 viewBox="-297.9 390.1 8.3 13.9" style="enable-background:new -297.9 390.1 8.3 13.9;" xml:space="preserve">
<style type="text/css">
	.st0{fill:#00A1C1;}
</style>
<g>
	<path id="XMLID_2825_" class="st0" d="M-292.3,399.3C-292.4,399.2-292.4,399.2-292.3,399.3l-2.8-0.1c0,0-0.1,0.1-0.1,0.1
		c0,0-0.2,0.3-0.4,0.9c-0.2,0.5-0.4,0.2-0.4,1.3c0,0,0,0.1,0.1,0.1c0,0,0.1,0,0.1,0l0.5-0.4c-0.1,0.3-0.2,0.9-0.1,1.6
		c0,0,0,0.1,0.1,0.1c0,0,0.1,0,0.1,0l0.5-0.5c0,0.1,0,0.2,0,0.4c0.1,0.5,0.4,1,0.8,1.3c0,0,0,0.1,0.1,0.1h0c0,0,0,0,0.1-0.1
		c0.4-0.3,0.7-0.8,0.8-1.3c0-0.1,0-0.3,0-0.4l0.5,0.5c0,0,0.1,0,0.1,0c0,0,0.1,0,0.1-0.1c0.1-0.6,0-1.2-0.1-1.6l0.5,0.4
		c0,0,0.1,0,0.1,0c0,0,0.1-0.1,0.1-0.1c0-1-0.2-0.8-0.4-1.3C-292.1,399.6-292.3,399.3-292.3,399.3z"/>
	<path id="XMLID_2787_" class="st0" d="M-295.1,398.6h2.7c0.1,0,0.1,0,0.1-0.1c0.3-1.6,0.4-2,0.3-3.4c-0.1-1.1-0.2-2.1-0.5-3
		c-0.5-1.5-1.2-2.1-1.2-2.1c0,0-0.1,0-0.2,0c0,0-0.7,0.7-1.2,2.2c-0.3,0.9-0.5,1.9-0.5,3c-0.1,1.4,0,1.8,0.3,3.4
		C-295.2,398.6-295.2,398.6-295.1,398.6z M-293.8,394c0.5,0,0.9,0.4,0.9,0.9c0,0.5-0.4,0.9-0.9,0.9c-0.5,0-0.9-0.4-0.9-0.9
		C-294.7,394.4-294.3,394-293.8,394z"/>
	<path id="XMLID_1248_" class="st0" d="M-295.8,398.6c0,0,0-0.1,0-0.2c-0.1-0.6-0.2-1.3-0.3-1.9c0,0,0-0.1-0.1-0.1c0,0-0.1,0-0.1,0
		l-1.5,0.9c0,0-0.2,0.1-0.2,0.1v1c0,0.1,0.2,0.4,0.3,0.4h1.7C-295.9,398.8-295.8,398.6-295.8,398.6z"/>
	<path id="XMLID_348_" class="st0" d="M-291.7,398.6c0,0,0-0.1,0-0.2c0.1-0.6,0.2-1.3,0.3-1.9c0,0,0-0.1,0.1-0.1c0,0,0.1,0,0.1,0
		l1.5,0.9c0,0,0.2,0.1,0.2,0.1v1c0,0.1-0.2,0.4-0.3,0.4h-1.7C-291.7,398.8-291.7,398.6-291.7,398.6z"/>
</g>
</svg>
