<?xml version="1.0" encoding="utf-8"?>
<!-- Generator: Adobe Illustrator 16.0.0, SVG Export Plug-In . SVG Version: 6.00 Build 0)  -->
<!DOCTYPE svg PUBLIC "-//W3C//DTD SVG 1.1//EN" "http://www.w3.org/Graphics/SVG/1.1/DTD/svg11.dtd">
<svg version="1.1" id="Layer_1" xmlns="http://www.w3.org/2000/svg" xmlns:xlink="http://www.w3.org/1999/xlink" x="0px" y="0px"
	 width="18.105px" height="18.105px" viewBox="0 0 18.105 18.105" enable-background="new 0 0 18.105 18.105" xml:space="preserve">
<path fill="#818282" d="M17.516,14.331l0.008-0.007l-4.611-4.613c0.423-0.885,0.667-1.874,0.667-2.921C13.579,3.04,10.54,0,6.79,0
	S0,3.04,0,6.79s3.04,6.79,6.79,6.79c1.047,0,2.035-0.244,2.921-0.667l4.612,4.61l0.008-0.007c0.4,0.362,0.928,0.589,1.512,0.589
	c1.25,0,2.263-1.013,2.263-2.263C18.106,15.259,17.879,14.733,17.516,14.331z M6.873,10.217c-1.847,0-3.344-1.498-3.344-3.343
	c0-1.847,1.497-3.343,3.344-3.343c1.846,0,3.342,1.496,3.342,3.343C10.215,8.719,8.719,10.217,6.873,10.217z"/>
</svg>
