<?xml version="1.0" encoding="utf-8"?>
<!-- Generator: Adobe Illustrator 19.0.0, SVG Export Plug-In . SVG Version: 6.00 Build 0)  -->
<svg version="1.1" id="Layer_1" xmlns="http://www.w3.org/2000/svg" xmlns:xlink="http://www.w3.org/1999/xlink" x="0px" y="0px"
	 viewBox="-298 390 14 14" style="enable-background:new -298 390 14 14;" xml:space="preserve">
<style type="text/css">
	.st0{fill:#00A1C1;}
</style>
<path id="XMLID_507_" class="st0" d="M-290.5,390l-6.8,6.8c-0.9,0.9-0.9,2.3,0,3.2l3.4,3.4c0.4,0.4,1,0.7,1.6,0.7s1.1-0.2,1.6-0.7
	l6.8-6.8V390H-290.5z M-291.9,402.2c-0.2,0.2-0.3,0.2-0.4,0.2c-0.1,0-0.3,0-0.4-0.2l-3.4-3.4c-0.2-0.2-0.2-0.3-0.2-0.4
	s0-0.3,0.2-0.4l6.3-6.3h4.3v4.3h0L-291.9,402.2z M-288.2,393c0.6,0,1.2,0.5,1.2,1.2s-0.5,1.2-1.2,1.2s-1.2-0.5-1.2-1.2
	S-288.8,393-288.2,393z"/>
</svg>
