<?xml version="1.0" encoding="utf-8"?>
<!-- Generator: Adobe Illustrator 16.0.0, SVG Export Plug-In . SVG Version: 6.00 Build 0)  -->
<!DOCTYPE svg PUBLIC "-//W3C//DTD SVG 1.1//EN" "http://www.w3.org/Graphics/SVG/1.1/DTD/svg11.dtd">
<svg version="1.1" id="Layer_1" xmlns="http://www.w3.org/2000/svg" xmlns:xlink="http://www.w3.org/1999/xlink" x="0px" y="0px"
	 width="18.106px" height="18.134px" viewBox="0 0 18.106 18.134" enable-background="new 0 0 18.106 18.134" xml:space="preserve">
<path fill="#818282" d="M17.389,10.22L7.886,0.717C7.426,0.258,6.804,0,6.153,0H2.45C1.096,0,0,1.097,0,2.448v3.707
	c0,0.648,0.257,1.271,0.714,1.729l9.497,9.528c0.957,0.962,2.514,0.961,3.472-0.001l3.711-3.732
	C18.346,12.722,18.343,11.175,17.389,10.22 M3.595,4.778c-0.656,0-1.188-0.531-1.188-1.188c0-0.655,0.532-1.188,1.188-1.188
	c0.656,0,1.188,0.532,1.188,1.188C4.783,4.247,4.251,4.778,3.595,4.778"/>
</svg>
