<?xml version="1.0" encoding="utf-8"?>
<!-- Generator: Adobe Illustrator 19.0.0, SVG Export Plug-In . SVG Version: 6.00 Build 0)  -->
<svg version="1.1" id="Layer_1" xmlns="http://www.w3.org/2000/svg" xmlns:xlink="http://www.w3.org/1999/xlink" x="0px" y="0px"
	 viewBox="-297.9 390.3 3.7 13.6" style="enable-background:new -297.9 390.3 3.7 13.6;" xml:space="preserve">
<style type="text/css">
	.st0{fill:#00A1C1;}
</style>
<g id="XMLID_3363_">
	<path id="XMLID_3574_" class="st0" d="M-294.2,393.1c0,0.5-0.4,0.9-0.9,0.9h-1.9c-0.5,0-0.9-0.4-0.9-0.9v-1.9
		c0-0.5,0.4-0.9,0.9-0.9h1.9c0.5,0,0.9,0.4,0.9,0.9V393.1z M-294.2,398.1c0,0.5-0.4,0.9-0.9,0.9h-1.9c-0.5,0-0.9-0.4-0.9-0.9v-1.9
		c0-0.5,0.4-0.9,0.9-0.9h1.9c0.5,0,0.9,0.4,0.9,0.9V398.1z M-294.2,403c0,0.5-0.4,0.9-0.9,0.9h-1.9c-0.5,0-0.9-0.4-0.9-0.9v-1.9
		c0-0.5,0.4-0.9,0.9-0.9h1.9c0.5,0,0.9,0.4,0.9,0.9V403z"/>
</g>
</svg>
