<?xml version="1.0" encoding="utf-8"?>
<!-- Generator: Adobe Illustrator 19.0.0, SVG Export Plug-In . SVG Version: 6.00 Build 0)  -->
<svg version="1.1" id="Layer_1" xmlns="http://www.w3.org/2000/svg" xmlns:xlink="http://www.w3.org/1999/xlink" x="0px" y="0px"
	 viewBox="-298 390 13 14" style="enable-background:new -298 390 13 14;" xml:space="preserve">
<style type="text/css">
	.st0{fill:#00A1C1;}
</style>
<g>
	<path class="st0" d="M-298,397.5c0-0.5,0.1-1,0.4-1.4c-0.1-0.2-0.1-0.4-0.1-0.6c0-0.4,0.1-0.8,0.3-1.2c0-0.1,0-0.2,0-0.4
		c0-0.6,0.2-1.1,0.5-1.5c0-0.8,0.2-1.4,0.7-1.9c0.5-0.5,1.1-0.7,1.9-0.7h0.3h0.8c0.5,0,1.1,0.1,1.6,0.2c0.5,0.1,1.1,0.3,1.8,0.6
		c0.7,0.2,1,0.3,1.2,0.3h2.4c0.3,0,0.6,0.1,0.8,0.3c0.2,0.2,0.3,0.5,0.3,0.8v5.4c0,0.3-0.1,0.6-0.3,0.8c-0.2,0.2-0.5,0.3-0.8,0.3
		h-2.3c-0.2,0.1-0.6,0.6-1.2,1.3c-0.3,0.4-0.6,0.8-0.9,1.1c-0.1,0.1-0.2,0.4-0.3,0.7c-0.1,0.3-0.1,0.7-0.3,1.1
		c-0.1,0.4-0.3,0.7-0.5,0.9c-0.2,0.2-0.5,0.3-0.8,0.3c-0.5,0-0.9-0.1-1.3-0.3c-0.4-0.2-0.7-0.5-0.9-0.9c-0.2-0.4-0.3-0.9-0.3-1.6
		c0-0.5,0.1-1.1,0.4-1.6h-1.5c-0.6,0-1.1-0.2-1.5-0.6C-297.8,398.6-298,398.1-298,397.5z M-296.9,397.5c0,0.3,0.1,0.5,0.3,0.8
		c0.2,0.2,0.5,0.3,0.8,0.3h3c0,0.3-0.1,0.8-0.4,1.3c-0.3,0.6-0.4,1-0.4,1.4c0,0.6,0.1,1,0.3,1.2c0.2,0.3,0.5,0.4,1.1,0.4
		c0.1-0.1,0.3-0.4,0.3-0.7c0.1-0.3,0.2-0.7,0.3-1.1c0.1-0.4,0.3-0.7,0.5-0.9c0.1-0.1,0.3-0.4,0.6-0.8c0,0,0.1-0.1,0.2-0.3
		c0.1-0.1,0.2-0.3,0.3-0.3c0.1-0.1,0.2-0.2,0.3-0.4c0.1-0.1,0.2-0.3,0.3-0.4c0.1-0.1,0.2-0.2,0.3-0.3c0.1-0.1,0.2-0.2,0.3-0.2
		s0.2-0.1,0.3-0.1h0.3v-5.4h-0.3c-0.1,0-0.2,0-0.3,0c-0.1,0-0.2,0-0.3-0.1c-0.1,0-0.2-0.1-0.3-0.1c-0.1,0-0.2-0.1-0.3-0.1
		c-0.1,0-0.2-0.1-0.3-0.1c-0.1,0-0.2-0.1-0.2-0.1c-1.2-0.4-2.1-0.6-2.9-0.6h-1c-1.1,0-1.6,0.5-1.6,1.4c0,0.1,0,0.3,0,0.5
		c-0.2,0.1-0.3,0.2-0.4,0.4c-0.1,0.2-0.1,0.4-0.1,0.6c0,0.2,0.1,0.4,0.2,0.6c-0.3,0.3-0.4,0.6-0.4,1c0,0.1,0,0.3,0.1,0.5
		c0.1,0.2,0.1,0.3,0.2,0.4c-0.2,0-0.3,0.1-0.5,0.4C-296.8,397.1-296.9,397.3-296.9,397.5z M-287,392.3c-0.1,0.1-0.2,0.2-0.2,0.4
		c0,0.1,0.1,0.3,0.2,0.4c0.1,0.1,0.2,0.2,0.4,0.2c0.1,0,0.3-0.1,0.4-0.2c0.1-0.1,0.2-0.2,0.2-0.4c0-0.1-0.1-0.3-0.2-0.4
		c-0.1-0.1-0.2-0.2-0.4-0.2C-286.8,392.1-286.9,392.2-287,392.3z"/>
</g>
</svg>
