<?xml version="1.0" encoding="utf-8"?>
<!-- Generator: Adobe Illustrator 19.0.0, SVG Export Plug-In . SVG Version: 6.00 Build 0)  -->
<svg version="1.1" id="Layer_1" xmlns="http://www.w3.org/2000/svg" xmlns:xlink="http://www.w3.org/1999/xlink" x="0px" y="0px"
	 viewBox="-298 390 13 14" style="enable-background:new -298 390 13 14;" xml:space="preserve">
<style type="text/css">
	.st0{fill:#00A1C1;}
</style>
<g>
	<path class="st0" d="M-285,396.4c0,0.5-0.1,1-0.4,1.4c0.1,0.2,0.1,0.4,0.1,0.6c0,0.4-0.1,0.8-0.3,1.2c0,0.1,0,0.2,0,0.4
		c0,0.6-0.2,1.1-0.5,1.5c0,0.8-0.2,1.4-0.7,1.9c-0.5,0.5-1.1,0.7-1.9,0.7h-0.3h-0.8c-0.5,0-1.1-0.1-1.6-0.2
		c-0.5-0.1-1.1-0.3-1.8-0.6c-0.7-0.2-1-0.3-1.2-0.3h-2.4c-0.3,0-0.6-0.1-0.8-0.3s-0.3-0.5-0.3-0.8v-5.4c0-0.3,0.1-0.6,0.3-0.8
		s0.5-0.3,0.8-0.3h2.3c0.2-0.1,0.6-0.6,1.2-1.3c0.3-0.4,0.6-0.8,0.9-1.1c0.1-0.1,0.2-0.4,0.3-0.7c0.1-0.3,0.2-0.7,0.3-1.1
		c0.1-0.4,0.3-0.7,0.5-0.9c0.2-0.2,0.5-0.3,0.8-0.3c0.5,0,0.9,0.1,1.3,0.3c0.4,0.2,0.7,0.5,0.9,0.9c0.2,0.4,0.3,0.9,0.3,1.6
		c0,0.5-0.1,1.1-0.4,1.6h1.5c0.6,0,1.1,0.2,1.5,0.6C-285.2,395.4-285,395.9-285,396.4z M-296,401.7c0.1-0.1,0.2-0.2,0.2-0.4
		c0-0.1-0.1-0.3-0.2-0.4c-0.1-0.1-0.2-0.2-0.4-0.2c-0.1,0-0.3,0.1-0.4,0.2c-0.1,0.1-0.2,0.2-0.2,0.4c0,0.1,0.1,0.3,0.2,0.4
		c0.1,0.1,0.2,0.2,0.4,0.2C-296.2,401.9-296.1,401.8-296,401.7z M-286.1,396.5c0-0.3-0.1-0.5-0.3-0.8c-0.2-0.2-0.5-0.3-0.8-0.3h-3
		c0-0.3,0.1-0.8,0.4-1.3c0.3-0.6,0.4-1,0.4-1.4c0-0.6-0.1-1-0.3-1.2c-0.2-0.3-0.5-0.4-1.1-0.4c-0.1,0.1-0.3,0.4-0.3,0.7
		c-0.1,0.3-0.2,0.7-0.3,1.1c-0.1,0.4-0.3,0.7-0.5,0.9c-0.1,0.1-0.3,0.4-0.6,0.8c0,0-0.1,0.1-0.2,0.3s-0.2,0.3-0.3,0.3
		c-0.1,0.1-0.2,0.2-0.3,0.4c-0.1,0.1-0.2,0.3-0.3,0.4c-0.1,0.1-0.2,0.2-0.3,0.3s-0.2,0.2-0.3,0.2c-0.1,0.1-0.2,0.1-0.3,0.1h-0.3v5.4
		h0.3c0.1,0,0.2,0,0.3,0c0.1,0,0.2,0,0.3,0.1c0.1,0,0.2,0.1,0.3,0.1c0.1,0,0.2,0.1,0.3,0.1c0.1,0,0.2,0.1,0.3,0.1
		c0.1,0,0.2,0.1,0.2,0.1c1.2,0.4,2.1,0.6,2.9,0.6h1c1.1,0,1.6-0.5,1.6-1.4c0-0.1,0-0.3,0-0.5c0.2-0.1,0.3-0.2,0.4-0.4
		s0.1-0.4,0.1-0.6s0-0.4-0.2-0.6c0.3-0.3,0.4-0.6,0.4-1c0-0.1,0-0.3-0.1-0.5c-0.1-0.2-0.1-0.3-0.2-0.4c0.2,0,0.3-0.1,0.5-0.4
		C-286.2,396.9-286.1,396.6-286.1,396.5z"/>
</g>
</svg>
