<?xml version="1.0" encoding="utf-8"?>
<!-- Generator: Adobe Illustrator 19.0.0, SVG Export Plug-In . SVG Version: 6.00 Build 0)  -->
<svg version="1.1" id="Layer_1" xmlns="http://www.w3.org/2000/svg" xmlns:xlink="http://www.w3.org/1999/xlink" x="0px" y="0px"
	 viewBox="-298 390 14 14" style="enable-background:new -298 390 14 14;" xml:space="preserve">
<style type="text/css">
	.st0{fill:#00A1C1;}
</style>
<path id="XMLID_84_" class="st0" d="M-289.4,390.8c-0.1-0.1-0.1-0.2-0.2-0.3c-0.3-0.3-0.8-0.5-1.3-0.5c-0.5,0-0.9,0.2-1.3,0.5
	c-0.1,0.1-0.2,0.2-0.2,0.3l-3.2,3.2c-0.7,0.7-0.7,1.8,0,2.5c0.7,0.7,1.8,0.7,2.5,0l0.6-0.6v2.8c0,1,0.8,1.7,1.7,1.7
	c1,0,1.7-0.8,1.7-1.7V396l0.5,0.5c0.7,0.7,1.8,0.7,2.5,0c0.7-0.7,0.7-1.8,0-2.5L-289.4,390.8z M-285.7,398.7h-1.5l-2,1.9
	c-0.5,0.4-1.1,0.7-1.8,0.7c-0.7,0-1.3-0.3-1.8-0.7l0,0l-0.1-0.1c0,0,0,0,0,0l-1.8-1.8h-1.5c-1,0-1.8,0.8-1.8,1.8v1.7
	c0,1,0.8,1.8,1.8,1.8h10.5c1,0,1.8-0.8,1.8-1.8v-1.7C-283.9,399.5-284.7,398.7-285.7,398.7 M-285.7,403.1c-0.5,0-0.9-0.4-0.9-0.9
	c0-0.5,0.4-0.9,0.9-0.9c0.5,0,0.9,0.4,0.9,0.9C-284.8,402.7-285.2,403.1-285.7,403.1"/>
</svg>
