<?xml version="1.0" encoding="utf-8"?>
<!-- Generator: Adobe Illustrator 16.0.0, SVG Export Plug-In . SVG Version: 6.00 Build 0)  -->
<!DOCTYPE svg PUBLIC "-//W3C//DTD SVG 1.1//EN" "http://www.w3.org/Graphics/SVG/1.1/DTD/svg11.dtd">
<svg version="1.1" id="Camada_1" xmlns="http://www.w3.org/2000/svg" xmlns:xlink="http://www.w3.org/1999/xlink" x="0px" y="0px"
	 width="18.107px" height="12.9px" viewBox="0 0 18.107 12.9" enable-background="new 0 0 18.107 12.9" xml:space="preserve">
<g id="XMLID_5_">
	<path id="XMLID_7_" d="M6.501,6.449c1.78,0,3.224-1.442,3.224-3.224C9.726,1.444,8.282,0,6.501,0C4.72,0,3.277,1.444,3.277,3.226
		C3.277,5.007,4.72,6.449,6.501,6.449 M8.443,6.758c-0.575,0.316-1.238,0.5-1.941,0.5c-0.713,0-1.38-0.188-1.96-0.512
		C1.918,7.566,0.013,10.008,0,12.9h12.95C12.938,10.021,11.048,7.588,8.443,6.758"/>
	<path id="XMLID_6_" fill-rule="evenodd" clip-rule="evenodd" d="M17.328,2.506h-1.532V0.961c0-0.429-0.349-0.778-0.778-0.778
		s-0.778,0.349-0.778,0.778v1.545h-1.558c-0.429,0-0.778,0.347-0.778,0.778c0,0.428,0.349,0.778,0.778,0.778h1.558v1.544
		c0,0.429,0.349,0.778,0.778,0.778s0.778-0.349,0.778-0.778V4.062h1.532c0.431,0,0.779-0.35,0.779-0.778
		C18.107,2.854,17.758,2.506,17.328,2.506"/>
</g>
</svg>
