<?xml version="1.0" encoding="utf-8"?>
<!-- Generator: Adobe Illustrator 16.0.0, SVG Export Plug-In . SVG Version: 6.00 Build 0)  -->
<!DOCTYPE svg PUBLIC "-//W3C//DTD SVG 1.1//EN" "http://www.w3.org/Graphics/SVG/1.1/DTD/svg11.dtd">
<svg version="1.1" id="Camada_1" xmlns="http://www.w3.org/2000/svg" xmlns:xlink="http://www.w3.org/1999/xlink" x="0px" y="0px"
	 width="615.438px" height="615.438px" viewBox="-9 74.062 615.438 615.438" enable-background="new -9 74.062 615.438 615.438"
	 xml:space="preserve">
<g>
	<path d="M324.507,445.388c-24.068,13.753-48.135,20.63-75.642,20.63c-27.505,0-55.011-6.877-79.078-20.63
		C66.642,476.331-9,576.039-9,689.5h512.292C503.292,576.039,427.652,479.77,324.507,445.388z"/>
	<path d="M248.865,431.634c72.203,0,127.214-58.449,127.214-127.214c0-72.202-58.449-127.214-127.214-127.214
		c-72.202,0-127.214,58.45-127.214,127.214C121.651,376.624,176.663,431.634,248.865,431.634z"/>
	<path d="M575.495,163.455h-58.45v-58.45c0-17.191-13.753-30.943-30.943-30.943c-17.191,0-30.944,13.752-30.944,30.943v58.45
		h-58.449c-17.191,0-30.944,13.752-30.944,30.943s13.753,30.943,30.944,30.943h58.449v58.45c0,17.19,13.753,30.943,30.944,30.943
		c17.19,0,30.943-13.753,30.943-30.943v-58.45h58.45c17.19,0,30.943-13.752,30.943-30.943
		C603,177.207,589.247,163.455,575.495,163.455z"/>
</g>
</svg>
