<?xml version="1.0" encoding="utf-8"?>
<!-- Generator: Adobe Illustrator 16.0.0, SVG Export Plug-In . SVG Version: 6.00 Build 0)  -->
<!DOCTYPE svg PUBLIC "-//W3C//DTD SVG 1.1//EN" "http://www.w3.org/Graphics/SVG/1.1/DTD/svg11.dtd">
<svg version="1.1" id="Camada_1" xmlns="http://www.w3.org/2000/svg" xmlns:xlink="http://www.w3.org/1999/xlink" x="0px" y="0px"
	 width="18.113px" height="18.117px" viewBox="0 0 18.113 18.117" enable-background="new 0 0 18.113 18.117" xml:space="preserve">
<path id="XMLID_224_" fill-rule="evenodd" clip-rule="evenodd" d="M15.842,2.257h-0.01C15.833,1.003,14.828-0.004,13.57,0
	c-1.249,0.003-2.234,0.99-2.234,2.248c0,0.003,0.001,0.006,0.001,0.009H6.775C6.776,1.003,5.771-0.004,4.514,0
	C3.266,0.003,2.282,0.99,2.282,2.248c0,0.003,0.001,0.006,0.001,0.009H2.271C1.017,2.257,0,3.274,0,4.526v11.322
	c0,1.253,1.017,2.269,2.271,2.269h13.571c1.254,0,2.271-1.015,2.271-2.269V4.526C18.113,3.274,17.096,2.257,15.842,2.257
	 M5.685,3.387c0,0.622-0.505,1.127-1.127,1.127c-0.623,0-1.127-0.505-1.127-1.127V2.295c0-0.624,0.505-1.127,1.127-1.127
	c0.622,0,1.127,0.504,1.127,1.127V3.387z M12.458,3.387V2.295c0-0.624,0.504-1.127,1.126-1.127c0.624,0,1.127,0.504,1.127,1.127
	v1.092c0,0.622-0.503,1.127-1.127,1.127C12.962,4.514,12.458,4.009,12.458,3.387 M17.009,15.503H1.17V5.396h15.838V15.503z
	 M12.025,9.684h-0.012L11.4,8.171c-0.222-0.546-0.752-0.903-1.34-0.903H8.155c-0.595,0-1.13,0.364-1.347,0.919L6.222,9.684H6.21
	c-0.529,0-0.958,0.429-0.958,0.958v0.983c0,0.529,0.429,0.958,0.958,0.958h0.009v0.5c0,0.534,0.433,0.966,0.966,0.966
	s0.966-0.433,0.966-0.966v-0.5h1.932v0.5c0,0.534,0.433,0.966,0.966,0.966s0.966-0.433,0.966-0.966v-0.5h0.009
	c0.529,0,0.958-0.429,0.958-0.958v-0.983C12.983,10.112,12.554,9.684,12.025,9.684 M6.703,11.624c-0.267,0-0.483-0.217-0.483-0.484
	c0-0.267,0.216-0.483,0.483-0.483s0.483,0.216,0.483,0.483C7.186,11.407,6.97,11.624,6.703,11.624 M7.186,9.691l0.394-1.006
	C7.725,8.314,8.083,8.07,8.48,8.07h1.275c0.394,0,0.749,0.239,0.897,0.604l0.413,1.017H7.186z M11.533,11.624
	c-0.267,0-0.483-0.217-0.483-0.484c0-0.267,0.216-0.483,0.483-0.483c0.267,0,0.483,0.216,0.483,0.483
	C12.017,11.407,11.8,11.624,11.533,11.624"/>
</svg>
