<?xml version="1.0" encoding="utf-8"?>
<!-- Generator: Adobe Illustrator 19.0.0, SVG Export Plug-In . SVG Version: 6.00 Build 0)  -->
<svg version="1.1" id="Camada_1" xmlns="http://www.w3.org/2000/svg" xmlns:xlink="http://www.w3.org/1999/xlink" x="0px" y="0px"
	 viewBox="-293.5 387.5 17.8 17.8" style="enable-background:new -293.5 387.5 17.8 17.8;" xml:space="preserve">
<path id="XMLID_7_" d="M-286,397.8c2.1,0,3.7-1.7,3.7-3.7c0-2.1-1.7-3.7-3.7-3.7c-2.1,0-3.7,1.7-3.7,3.7
	C-289.7,396.2-288.1,397.8-286,397.8 M-283.8,398.2c-0.7,0.4-1.4,0.6-2.2,0.6c-0.8,0-1.6-0.2-2.3-0.6c-3,0.9-5.2,3.8-5.2,7.1h14.9
	C-278.6,402-280.8,399.2-283.8,398.2"/>
<path id="XMLID_6_" d="M-276.5,390h-1.7v-1.7c0-0.5-0.4-0.9-0.9-0.9s-0.9,0.4-0.9,0.9v1.7h-1.7c-0.5,0-0.9,0.4-0.9,0.9
	c0,0.5,0.4,0.9,0.9,0.9h1.7v1.7c0,0.5,0.4,0.9,0.9,0.9s0.9-0.4,0.9-0.9v-1.7h1.7c0.5,0,0.9-0.4,0.9-0.9
	C-275.7,390.4-276.1,390-276.5,390"/>
</svg>
